<svg width="850" height="850" viewBox="0 0 850 850" fill="none" xmlns="http://www.w3.org/2000/svg">
<path d="M660.034 660.033C610.457 709.61 546.459 742.218 477.21 753.186C407.962 764.154 337.019 752.918 274.549 721.088C212.079 689.258 161.29 638.468 129.46 575.999C97.63 513.529 86.3938 442.586 97.3616 373.338L425.274 425.274L660.034 660.033Z" fill="#00AA2D"/>
<path d="M550.568 117.824C615.495 144.283 670.378 190.618 707.353 250.187C744.328 309.756 761.495 379.502 756.394 449.428L425.274 425.274L550.568 117.824Z" fill="#005FFF"/>
<path d="M319.477 242.03C358.111 219.703 402.822 210.18 447.201 214.826C491.58 219.471 533.349 238.047 566.522 267.891L425.203 424.974L319.477 242.03Z" fill="#FFC300"/>
<path d="M214.573 458.436C210.102 430.852 211.109 402.657 217.535 375.461C223.962 348.266 235.682 322.603 252.026 299.937L424.625 424.397L214.573 458.436Z" fill="#FF0000"/>
<path d="M787.258 645.504C740.611 722.087 670.917 781.936 588.165 816.473L424.617 424.617L787.258 645.504Z" fill="#FFC300"/>
</svg>
